<?xml version="1.0" encoding="utf-8"?>
<!-- Generator: Adobe Illustrator 25.0.1, SVG Export Plug-In . SVG Version: 6.00 Build 0)  -->
<svg version="1.1" id="Layer_1" xmlns="http://www.w3.org/2000/svg" xmlns:xlink="http://www.w3.org/1999/xlink" x="0px" y="0px"
	 viewBox="0 0 144 171" style="enable-background:new 0 0 144 171;" xml:space="preserve">
<style type="text/css">
	.st0{fill:#00F3FF;stroke:#00F3FF;stroke-miterlimit:10;}
	.st1{fill:#C1C1C1;}
	.st2{fill:none;stroke:#000000;stroke-miterlimit:10;}
</style>
<path class="st0" d="M134.5,98.5c0,34.52-27.98,62.5-62.5,62.5S9.5,133.02,9.5,98.5c0-16.35,6.28-31.22,16.55-42.37h-0.2L72,10
	l42.37,42.55c1.16,1.07,2.26,2.19,3.33,3.34l0.24,0.24h-0.02C128.21,67.27,134.5,82.14,134.5,98.5z"/>
<rect y="10" class="st1" width="144" height="151"/>
<path class="st2" d="M134.5,98.5c0,34.52-27.98,62.5-62.5,62.5S9.5,133.02,9.5,98.5c0-16.35,6.28-31.22,16.55-42.37h-0.2L72,10
	l42.37,42.55c1.16,1.07,2.26,2.19,3.33,3.34l0.24,0.24h-0.02C128.21,67.27,134.5,82.14,134.5,98.5z"/>
</svg>
